<?xml version="1.0" encoding="iso-8859-1"?>
<!-- Generator: Adobe Illustrator 19.0.0, SVG Export Plug-In . SVG Version: 6.00 Build 0)  -->
<svg version="1.1" id="Layer_1" xmlns="http://www.w3.org/2000/svg" xmlns:xlink="http://www.w3.org/1999/xlink" x="0px" y="0px"
	 viewBox="0 0 512.003 512.003" style="enable-background:new 0 0 512.003 512.003;" xml:space="preserve">
<path style="fill:#EA8249;" d="M177.84,342.091c0,22.245-8.156,42.574-21.648,58.166c-2.683,3.081-5.58,5.994-8.647,8.692
	c-14.211,12.48-32.441,20.482-52.494,21.847c-2.024,0.138-4.062,0.215-6.132,0.215c-2.07,0-4.109-0.077-6.132-0.215
	c-20.053-1.365-38.281-9.367-52.494-21.847c-3.067-2.698-5.964-5.612-8.647-8.692C8.156,384.666,0,364.336,0,342.091
	c0-22.23,8.156-42.56,21.632-58.151c2.698-3.097,5.58-6.01,8.662-8.709c14.211-12.479,32.441-20.482,52.494-21.847
	c2.024-0.138,4.062-0.215,6.132-0.215c2.07,0,4.109,0.076,6.132,0.215c20.053,1.365,38.281,9.367,52.494,21.847
	c3.082,2.698,5.964,5.612,8.662,8.709C169.684,299.533,177.84,319.861,177.84,342.091z"/>
<path style="fill:#D36F3D;" d="M42.038,342.092c0-49.11,26.305-88.92,46.882-88.92c-49.108,0-88.92,39.812-88.92,88.92
	s39.81,88.92,88.92,88.92C68.343,431.012,42.038,391.202,42.038,342.092z"/>
<path style="fill:#C16238;" d="M95.052,372.554c23.135,1.472,44.66,11.161,61.14,27.704c-2.683,3.081-5.58,5.994-8.647,8.692
	c-14.181-14.243-32.624-22.66-52.494-24.1v45.947c-2.024,0.138-4.062,0.215-6.132,0.215s-4.109-0.077-6.132-0.215V384.85
	c-19.87,1.441-38.313,9.857-52.494,24.1c-3.067-2.698-5.964-5.611-8.647-8.692c16.481-16.543,38.006-26.232,61.14-27.704v-60.91
	c-23.135-1.472-44.66-11.161-61.156-27.704c2.698-3.097,5.58-6.01,8.662-8.708c14.196,14.258,32.639,22.66,52.494,24.115v-45.962
	c2.024-0.138,4.062-0.215,6.132-0.215c2.07,0,4.109,0.076,6.132,0.215v45.962c19.853-1.457,38.296-9.857,52.494-24.115
	c3.082,2.698,5.964,5.611,8.662,8.708c-16.496,16.543-38.021,26.232-61.156,27.704V372.554z"/>
<path style="fill:#666666;" d="M294.827,48.838c6.27-26.779,30.289-46.718,58.98-46.718c47.314,0,85.675,38.361,85.675,85.683
	v181.702c0,23.102,18.734,41.836,41.836,41.836h11.58c0,0-57.537,38.735-115.905,13.053l-73.962-43.469"/>
<path style="fill:#4D4D4D;" d="M417.311,324.394l-73.962-43.469l-8.204-232.087c4.869-20.796,20.444-37.459,40.596-43.871
	c-7.002-1.85-14.352-2.846-21.935-2.846c-28.69,0-52.71,19.937-58.98,46.718l8.204,232.087l73.962,43.469
	c22.216,9.775,44.307,10.213,63.155,7.012C432.635,330.022,424.98,327.769,417.311,324.394z"/>
<path style="fill:#F9C573;" d="M314.817,331.713H204.724c-39.872,0-72.196,32.323-72.196,72.196v105.974h254.484V403.91
	C387.012,364.036,354.689,331.713,314.817,331.713z"/>
<path style="fill:#E0B394;" d="M311.279,291.438v65.764c0,28.447-23.065,51.512-51.512,51.512
	c-28.456,0-51.512-23.065-51.512-51.512v-65.764L311.279,291.438L311.279,291.438z"/>
<path style="fill:#E2AA59;" d="M249.208,331.713h-44.483c-39.872,0-72.196,32.323-72.196,72.196v105.974h44.483V403.91
	C177.011,364.036,209.334,331.713,249.208,331.713z"/>
<g>
	<path style="fill:#E0B394;" d="M136.708,233.034c-14.475-0.642-25.997-12.584-25.997-27.211c0-15.036,12.187-27.234,27.234-27.234
		c1.354,0,2.685,0.093,3.992,0.292"/>
	<path style="fill:#E0B394;" d="M382.811,233.034c14.475-0.642,26.009-12.584,26.009-27.211c0-15.036-12.199-27.234-27.246-27.234
		c-1.354,0-2.697,0.105-3.992,0.292"/>
</g>
<path style="fill:#F7CBA4;" d="M220.367,350.755l-47.919-34.815c-25.322-18.398-39.021-48.821-36.011-79.977l8.312-86.009
	c5.725-59.238,55.504-104.439,115.018-104.439l0,0c59.513,0,109.293,45.201,115.018,104.439l8.312,86.009
	c3.011,31.156-10.687,61.578-36.011,79.977l-47.919,34.815C275.672,367.824,243.86,367.824,220.367,350.755z"/>
<path style="fill:#E0B394;" d="M166.258,252.914c-0.805,13.623,3.63,27.024,12.409,37.472l50.083,61.543
	c2.615,3.117,5.58,5.732,8.79,7.821c-6.024-2.101-11.814-5.113-17.172-9l-47.92-34.811c-25.32-18.398-39.013-48.819-36.001-79.976
	l8.3-86.011c5.673-58.66,54.539-103.556,113.292-104.409c-36.188,0.876-77.166,34.986-79.302,71.314L166.258,252.914z"/>
<path style="fill:#666666;" d="M362.283,107.712l-112.55,18.637l-92.485-18.637c19.378-37.192,58.251-62.197,102.517-62.197
	c29.756,0,57.084,11.3,77.676,30.013C347.481,84.645,355.932,95.525,362.283,107.712z"/>
<path style="fill:#4D4D4D;" d="M157.248,107.712h51.364c9.669-37.192,29.066-62.197,51.154-62.197
	C215.499,45.515,176.626,70.52,157.248,107.712z"/>
<polygon style="fill:#90BC42;" points="373.606,107.712 383.891,157.126 135.64,157.126 145.924,107.712 157.248,107.712 
	362.283,107.712 "/>
<polygon style="fill:#83A538;" points="157.248,107.712 145.924,107.712 135.64,157.126 205.682,157.126 215.966,107.712 "/>
<rect x="304.821" y="458.493" style="fill:#59B1D8;" width="207.183" height="17.51"/>
<g>
	<rect x="326.814" y="424.605" style="fill:#71C5F4;" width="47.585" height="85.276"/>
	<rect x="442.429" y="424.605" style="fill:#71C5F4;" width="47.585" height="85.276"/>
</g>
<g>
	<rect x="326.814" y="492.311" style="fill:#59B1D8;" width="47.585" height="17.569"/>
	<rect x="442.429" y="492.311" style="fill:#59B1D8;" width="47.585" height="17.569"/>
</g>
<g>
	<path style="fill:#4D4D4D;" d="M207.799,244.094c-4.836,0-8.755-3.92-8.755-8.755v-14.004c0-4.835,3.919-8.755,8.755-8.755
		c4.836,0,8.755,3.92,8.755,8.755v14.004C216.554,240.174,212.634,244.094,207.799,244.094z"/>
	<path style="fill:#4D4D4D;" d="M311.734,244.094c-4.836,0-8.755-3.92-8.755-8.755v-14.004c0-4.835,3.919-8.755,8.755-8.755
		c4.836,0,8.755,3.92,8.755,8.755v14.004C320.489,240.174,316.569,244.094,311.734,244.094z"/>
</g>
<path style="fill:#E0B394;" d="M268.917,245.434h-0.398V227.34c0-4.835-3.919-8.755-8.755-8.755c-4.836,0-8.755,3.92-8.755,8.755
	v18.094h-0.398c-4.836,0-8.755,3.92-8.755,8.755c0,4.835,3.919,8.755,8.755,8.755h18.307c4.836,0,8.755-3.92,8.755-8.755
	C277.673,249.354,273.754,245.434,268.917,245.434z"/>
<path style="fill:#F2F2F2;" d="M294.237,285.033c0,0-0.502,1.634-1.558,4.214c-0.256,0.665-0.555,1.366-0.89,2.125
	c-0.396,0.747-0.854,1.506-1.347,2.358c-0.493,0.852-1.056,1.716-1.655,2.673c-0.211,0.362-0.44,0.665-0.686,0.981
	c-0.088,0.117-0.184,0.233-0.281,0.35c-0.343,0.42-0.696,0.864-1.056,1.307c-0.723,0.899-1.506,1.786-2.324,2.72
	c-0.863,0.841-1.787,1.634-2.739,2.498c-0.475,0.432-0.969,0.852-1.471,1.272c-0.502,0.397-1.039,0.724-1.585,1.086
	c-1.074,0.724-2.192,1.424-3.346,2.125c-2.378,1.074-4.852,2.335-7.493,2.86c-2.607,0.805-5.327,0.934-8.04,1.109
	c-2.712-0.175-5.433-0.292-8.04-1.097c-2.642-0.525-5.115-1.786-7.493-2.86c-1.153-0.689-2.272-1.389-3.355-2.113
	c-0.537-0.362-1.074-0.689-1.585-1.086c-0.493-0.432-0.986-0.841-1.462-1.272c-0.951-0.864-1.884-1.669-2.747-2.498
	c-0.818-0.934-1.593-1.833-2.324-2.72c-0.361-0.455-0.704-0.887-1.048-1.319c-0.124-0.152-0.246-0.304-0.37-0.455
	c-0.211-0.28-0.414-0.549-0.59-0.864c-0.572-0.922-1.128-1.774-1.611-2.615c-0.475-0.852-0.942-1.599-1.33-2.346
	c-0.353-0.794-0.678-1.518-0.951-2.183c-1.101-2.662-1.558-4.249-1.558-4.249s1.303,0.525,3.311,1.599
	c0.511,0.257,1.039,0.572,1.628,0.887c0.626,0.245,1.268,0.56,1.955,0.864c0.696,0.304,1.391,0.677,2.13,1.027
	c0.731,0.374,1.558,0.619,2.378,0.946c0.819,0.315,1.638,0.7,2.492,1.039c0.89,0.257,1.779,0.56,2.694,0.852
	c0.458,0.14,0.907,0.315,1.365,0.479c0.467,0.14,0.951,0.222,1.427,0.35c0.96,0.222,1.919,0.479,2.88,0.77
	c1.999,0.245,3.971,0.829,6.032,0.934c2.034,0.35,4.113,0.257,6.173,0.42c2.07-0.163,4.148-0.058,6.181-0.409
	c2.06-0.093,4.033-0.689,6.032-0.934c0.96-0.28,1.919-0.537,2.88-0.759c0.475-0.128,0.96-0.21,1.427-0.35
	c0.458-0.175,0.916-0.339,1.365-0.479c0.916-0.292,1.805-0.607,2.694-0.852c0.863-0.339,1.682-0.724,2.5-1.039
	c0.81-0.327,1.655-0.584,2.36-0.946c0.723-0.327,1.4-0.689,2.087-0.969c0.678-0.303,1.312-0.607,1.937-0.852
	c0.616-0.35,1.163-0.689,1.682-0.957C292.96,285.524,294.237,285.033,294.237,285.033z"/>
<path style="fill:#4D4D4D;" d="M288.099,297.383c-0.088,0.117-0.184,0.233-0.281,0.35c-0.343,0.42-0.696,0.864-1.056,1.307
	c-0.723,0.899-1.506,1.786-2.324,2.72c-0.863,0.841-1.787,1.634-2.739,2.498c-0.475,0.432-0.969,0.852-1.471,1.272
	c-0.502,0.397-1.039,0.724-1.585,1.086c-1.074,0.724-2.192,1.424-3.346,2.125c-2.378,1.074-4.852,2.335-7.493,2.86
	c-2.607,0.805-5.327,0.934-8.04,1.109c-2.712-0.175-5.433-0.292-8.04-1.097c-2.642-0.525-5.115-1.786-7.493-2.86
	c-1.153-0.689-2.272-1.389-3.355-2.113c-0.537-0.362-1.074-0.689-1.585-1.086c-0.493-0.432-0.986-0.841-1.462-1.272
	c-0.951-0.864-1.884-1.669-2.747-2.498c-0.818-0.934-1.593-1.833-2.324-2.72c-0.361-0.455-0.704-0.887-1.048-1.319
	c-0.124-0.152-0.246-0.304-0.37-0.455c0.281,0.128,0.564,0.257,0.855,0.385c0.696,0.303,1.391,0.665,2.13,1.016
	c0.731,0.385,1.558,0.63,2.378,0.957c0.819,0.315,1.638,0.689,2.492,1.039c0.89,0.245,1.779,0.56,2.694,0.852
	c0.458,0.14,0.907,0.304,1.365,0.467c0.467,0.14,0.951,0.222,1.427,0.35c0.96,0.222,1.919,0.49,2.88,0.77
	c1.999,0.257,3.971,0.84,6.032,0.934c2.034,0.362,4.113,0.257,6.173,0.432c2.07-0.163,4.148-0.058,6.181-0.42
	c2.06-0.093,4.033-0.677,6.032-0.922c0.96-0.28,1.919-0.549,2.88-0.77c0.475-0.128,0.96-0.21,1.427-0.35
	c0.458-0.163,0.916-0.327,1.365-0.467c0.916-0.292,1.805-0.607,2.694-0.852c0.863-0.35,1.682-0.735,2.5-1.039
	c0.81-0.327,1.655-0.595,2.36-0.946c0.723-0.339,1.4-0.689,2.087-0.981C287.562,297.629,287.836,297.501,288.099,297.383z"/>
<g>
	<path style="fill:#666666;" d="M291.716,201.575c0,0,0.023-0.232,0.102-0.632c0.09-0.386,0.181-0.997,0.377-1.688
		c0.088-0.357,0.201-0.73,0.33-1.139c0.169-0.416,0.397-0.833,0.639-1.307c0.239-0.476,0.542-0.947,0.859-1.476
		c0.32-0.537,0.702-0.944,1.093-1.463c0.397-0.498,0.844-0.981,1.311-1.499c0.494-0.468,1.03-0.929,1.599-1.393
		c1.115-0.982,2.477-1.691,3.897-2.481c1.469-0.621,3.027-1.295,4.696-1.606c1.653-0.43,3.387-0.531,5.115-0.612
		c1.729,0.079,3.464,0.172,5.118,0.599c1.671,0.308,3.23,0.985,4.7,1.602c1.421,0.788,2.784,1.497,3.9,2.479
		c0.569,0.465,1.105,0.927,1.6,1.393c0.467,0.519,0.912,1.006,1.311,1.501c0.385,0.516,0.786,0.94,1.079,1.456
		c0.294,0.514,0.579,0.974,0.81,1.439c0.23,0.467,0.453,0.878,0.621,1.292c0.153,0.432,0.288,0.823,0.389,1.193
		c0.222,0.716,0.314,1.331,0.399,1.716c0.075,0.398,0.091,0.625,0.091,0.625s-0.242-0.006-0.65-0.046
		c-0.397-0.051-1.013-0.077-1.694-0.176c-0.353-0.036-0.712-0.102-1.108-0.154c-0.421-0.02-0.837-0.078-1.289-0.113
		c-0.886-0.093-1.811-0.232-2.827-0.272c-0.5-0.033-0.984-0.105-1.491-0.147c-0.524-0.007-1.041-0.034-1.555-0.072
		c-1.006-0.131-2.1-0.054-3.116-0.181c-1.068,0.039-2.091-0.092-3.15-0.06c-1.041-0.078-2.094,0.005-3.139-0.069
		c-1.045,0.071-2.098-0.02-3.141,0.056c-1.06-0.037-2.083,0.098-3.153,0.055c-1.017,0.126-2.113,0.048-3.119,0.18
		c-0.514,0.039-1.031,0.067-1.556,0.072c-0.507,0.042-0.989,0.119-1.491,0.149c-1.037,0.056-1.898,0.154-2.763,0.229
		c-0.454,0.035-0.879,0.068-1.272,0.097c-0.419,0.076-0.802,0.16-1.166,0.208c-0.706,0.125-1.324,0.154-1.716,0.204
		C291.949,201.574,291.716,201.575,291.716,201.575z"/>
	<path style="fill:#666666;" d="M187.781,201.575c0,0,0.023-0.232,0.102-0.632c0.09-0.386,0.181-0.997,0.377-1.688
		c0.088-0.357,0.201-0.73,0.33-1.139c0.169-0.416,0.397-0.833,0.639-1.307c0.239-0.476,0.542-0.947,0.859-1.476
		c0.32-0.537,0.702-0.944,1.093-1.463c0.397-0.498,0.844-0.981,1.311-1.499c0.494-0.468,1.03-0.929,1.599-1.393
		c1.115-0.982,2.477-1.691,3.897-2.481c1.469-0.621,3.027-1.295,4.696-1.606c1.653-0.43,3.387-0.531,5.115-0.612
		c1.729,0.079,3.464,0.172,5.118,0.599c1.671,0.308,3.23,0.985,4.7,1.602c1.421,0.788,2.784,1.497,3.9,2.479
		c0.568,0.465,1.105,0.927,1.6,1.393c0.467,0.519,0.912,1.006,1.311,1.501c0.385,0.516,0.786,0.94,1.079,1.456
		c0.294,0.514,0.579,0.974,0.81,1.439c0.23,0.467,0.453,0.878,0.621,1.292c0.153,0.432,0.288,0.823,0.389,1.193
		c0.222,0.716,0.314,1.331,0.399,1.716c0.075,0.398,0.091,0.625,0.091,0.625s-0.242-0.006-0.65-0.046
		c-0.397-0.051-1.013-0.077-1.694-0.176c-0.353-0.036-0.712-0.102-1.108-0.154c-0.421-0.02-0.837-0.078-1.289-0.113
		c-0.886-0.093-1.811-0.232-2.827-0.272c-0.5-0.033-0.984-0.105-1.491-0.147c-0.524-0.007-1.041-0.034-1.555-0.072
		c-1.006-0.131-2.1-0.054-3.116-0.181c-1.068,0.039-2.091-0.092-3.15-0.06c-1.041-0.078-2.094,0.005-3.139-0.069
		c-1.045,0.071-2.098-0.02-3.141,0.056c-1.06-0.037-2.083,0.098-3.153,0.055c-1.017,0.126-2.113,0.048-3.119,0.18
		c-0.514,0.039-1.031,0.067-1.556,0.072c-0.507,0.042-0.989,0.119-1.491,0.149c-1.037,0.056-1.898,0.154-2.763,0.229
		c-0.454,0.035-0.879,0.068-1.272,0.097c-0.419,0.076-0.802,0.16-1.166,0.208c-0.706,0.125-1.324,0.154-1.716,0.204
		C188.015,201.574,187.781,201.575,187.781,201.575z"/>
</g>
<g>
</g>
<g>
</g>
<g>
</g>
<g>
</g>
<g>
</g>
<g>
</g>
<g>
</g>
<g>
</g>
<g>
</g>
<g>
</g>
<g>
</g>
<g>
</g>
<g>
</g>
<g>
</g>
<g>
</g>
</svg>
